<?xml version="1.0" encoding="UTF-8"?>
<svg id="Layer_1" xmlns="http://www.w3.org/2000/svg" version="1.1" viewBox="0 0 1024 1024">
  <!-- Generator: Adobe Illustrator 29.1.0, SVG Export Plug-In . SVG Version: 2.1.0 Build 142)  -->
  <defs>
    <style>
      .st0 {
        fill: #909090;
      }

      .st1 {
        fill: #e6e6e6;
      }

      .st2 {
        fill: #df2b3b;
      }

      .st3 {
        fill: #1a1a1a;
      }
    </style>
  </defs>
  <rect class="st1" width="1024" height="1024" rx="256" ry="256"/>
  <g>
    <path class="st2" d="M148.5,908.4c-7.1-3.1-13.5-7.4-19-12.8s-9.8-11.9-12.8-19c-3.1-7.3-4.6-15.2-4.6-23.2s1.5-15.8,4.7-23.2c3.1-7.1,7.4-13.5,12.8-19s11.9-9.8,19-12.8c7.4-3.1,15.2-4.7,23.2-4.7s15.8,1.5,23.2,4.7c7.1,3.1,13.5,7.4,19,12.8s9.8,11.9,12.8,19c3.1,7.4,4.7,15.2,4.7,23.2s-1.5,15.8-4.7,23.2c-3.1,7.1-7.4,13.5-12.8,19s-11.9,9.8-19,12.8c-7.4,3.1-15.2,4.7-23.2,4.7s-15.8-1.5-23.2-4.7h0ZM146.5,828c-6.8,6.8-10.5,15.7-10.5,25.4s3.8,18.6,10.5,25.4c6.8,6.8,15.7,10.5,25.4,10.5s18.6-3.8,25.4-10.5c6.8-6.8,10.5-15.7,10.5-25.4s-3.8-18.6-10.5-25.4c-6.8-6.8-15.8-10.5-25.4-10.5s-18.6,3.8-25.4,10.5Z"/>
    <path class="st2" d="M316,805.6c-7.1-7.4-17.5-11.1-31-11.1h-42.8v118h23.7v-95.5h17.7c5.8,0,10.5,1.4,13.5,4s4.5,6.6,4.5,11.7-1.5,8.8-4.3,11.5c-3.3,3.1-8.6,4.7-15.7,4.7h-4v22.5h5.2c6.2,0,11.8-.7,16.8-2.2,5.4-1.5,10-3.9,13.8-7,4-3.2,7.2-7.5,9.3-12.3,2.1-4.9,3.2-10.5,3.2-16.8,0-11.3-3.4-20.8-9.8-27.5h-.2.1Z"/>
    <path class="st2" d="M336.5,912.4h76.4v-22.1h-76.4v22.1h0ZM336.5,865h76.4v-22.5h-76.4v22.5h0ZM336.5,794.5v22.5h76.4v-22.5h-76.4Z"/>
    <path class="st2" d="M447.3,838.8v73.7h-23.7v-118h21l52.7,74.4v-74.4h23.7v118h-21.5l-52.3-73.7h0Z"/>
    <path class="st2" d="M568.3,908.6c-7.1-3.1-13.5-7.4-19.1-12.8-5.5-5.5-9.8-11.9-12.8-19.1-3.1-7.4-4.7-15.2-4.7-23.3s1.5-15.9,4.7-23.3c3.1-7.1,7.4-13.5,12.8-19.1,5.5-5.5,11.9-9.8,19.1-12.8,7.4-3.1,15.2-4.7,23.3-4.7s19.2,2.3,27.6,6.7c8.2,4.2,15.4,10.4,20.8,17.9l-19.2,14c-3.2-4.5-7.6-8.3-12.6-10.8-5.1-2.7-10.8-4-16.6-4-9.7,0-18.7,3.8-25.5,10.5-6.8,6.8-10.5,15.8-10.5,25.5s3.8,18.7,10.5,25.5c6.8,6.8,15.8,10.5,25.5,10.5s18.7-3.8,25.5-10.5c3.9-3.9,6.8-8.6,8.6-13.7h-34.2v-23.7h59.8v11.9c0,8-1.5,15.9-4.7,23.3-3.1,7.1-7.4,13.5-12.8,19.1-5.5,5.5-11.9,9.8-19.1,12.8-7.4,3.1-15.2,4.7-23.3,4.7s-15.9-1.5-23.3-4.7h.2Z"/>
    <polygon class="st2" points="711.3 794.5 690.9 794.5 646.2 912.4 671.3 912.4 701 830.8 731 912.4 756.2 912.4 711.3 794.5"/>
    <polygon class="st0" points="701.2 912.4 682.4 883.4 719.8 883.4 701.2 912.4"/>
    <path class="st2" d="M768.9,817.1h-32v-22.5h88.4v22.5h-32.5v95.5h-23.7v-95.5h-.2Z"/>
    <path class="st2" d="M835.8,912.4h76.4v-22.1h-76.4v22.1ZM835.8,865h76.4v-22.5h-76.4v22.5ZM835.8,794.5v22.5h76.4v-22.5h-76.4Z"/>
  </g>
  <path class="st3" d="M736.4,610.5c-6.7,4.7-29.9,1.4-40.8-5.8-12.1-8-17.1-18.3-28-57-10-35.8-17.5-51.4-31.8-65.8-5.9-5.9-13.5-11.9-17.5-13.7-15-6.9-34-9.2-50.5-6-16.4,3.1-19.8,3.3-23.4.9-4.4-2.9-7.5-10.2-6.3-14.9.5-1.9,12-16,25.6-31.3s26.9-30.2,29.5-33.2l4.8-5.5-4.4-5.5c-2.4-3-5.5-9.1-6.9-13.5-3.2-10.1-1.7-18.5,6.6-37,8.9-20,11.4-33.8,9.2-51.3-3.6-28-19.8-46.5-48-54.7-12.1-3.5-32.7-2.5-43.2,2.1-12.2,5.3-12.2,5.9.3,16.1,11.6,9.5,13.8,13.5,11.5,20.5-1.4,4.1-9.5,10.8-13.2,10.8s-34.4-21.4-38.6-26c-2.2-2.4-3.3-5.5-3.3-9.1,0-10-4.5-33.3-9-46.8-8.2-24.5-20.7-41.9-44.7-62.2-4.6-3.9-5.4-5.5-5.4-10.5,0-8.2,3.7-12.3,12.6-13.9,13.2-2.3,80-3.3,98.2-1.4,19.6,2.1,46.4,7.8,61.2,13.1,14.5,5.2,35,15.7,47.5,24.3,13,9,31.4,27.9,40.5,41.8,31,47,34.7,112.8,9.4,163.2-7.6,15.1-16.4,18.5-25.2,9.6-5.1-5.1-4.6-12,1.6-24.3,9.3-18.4,11.9-31.4,11.8-59.1,0-25.2-1.2-32.4-8.2-51.7-11.5-31.6-38.4-58.4-73-72.9-28.4-11.9-55.9-17-98-18.2l-30.2-.9,6.9,9c12.2,15.9,25,43.6,28.2,61.4.8,4.6,1.5,5.5,3.5,4.6,19.3-8.3,21.2-8.7,41.6-8.7s20.6.2,32.4,4.7c40.5,15.4,62.6,47.3,62.7,90.4,0,17.8-3.2,32.4-11.5,51.2l-.4,1c-4.5,10.1-6.3,14.4-5.4,18,.7,2.7,3,5,6.9,9.2,8.5,8.9,10.8,14.1,9.2,20.4-.5,2.1-10.2,14.3-21.6,27.2-11.3,12.9-20.6,23.8-20.6,24.3s2.5.9,5.5.9c17,0,41.3,10,56,22.8,4.2,3.7,8,6.7,8.5,6.7s.9-18.1.9-40.3c0-44,0-44.7,8.6-48.2,8.7-3.6,23,3.4,39.8,19.6,21.5,20.6,32.4,45.3,35.1,79.3,1,12.2.9,12.8-2.8,17.2-4.9,5.8-10,7.1-16.2,4.1-6.5-3.1-7.9-6.5-8.9-21-.9-13.5-4-25.8-9.1-35.9-4-7.9-14.9-22.1-17-22.1s-1.3,17.4-1,50.6l.5,50.6,6.2,22.2c3.4,12.2,7.3,25.3,8.5,29.2,2.5,7.7,8.9,16.3,11,15,.7-.5,1.3-14.4,1.3-30.9,0-29.1,0-30.2,3.3-34,4.6-5.3,13.8-6.6,18.9-2.5l3.7,3,.4,40.3c.5,42.4,0,46.6-6.1,50.9l.3-.4h0ZM333.2,688.7c-2.8,1.2-5.7,2.1-6.3,2.1-3.3-.3-7.7-3.1-10.5-6.6-3.1-4-3.2-4.6-3.2-81.6v-77.6l-8.3-10.8c-9.3-12.2-12.4-20.6-12.4-33.6s4.3-21.1,12.4-30.1l5.3-5.9v-80.3l4.3-4.3c5.6-5.6,12.9-5.8,18.9-.8l4.1,3.6.7,36.6.7,36.5,9.5,1.9c12.2,2.5,18.2,6.6,30.6,20.9,20.1,23.1,96.5,118.4,98,122.2,4.1,10.7-.2,25.1-9.8,32.9-7.4,6.1-13.6,6.2-20.1.5-6-5.4-6.5-13-1.3-18.5,2-2.1,3.1-4.6,2.5-6-1.2-3.2-8-5.5-13-4.4-5.4,1.2-14.2,11.1-15.4,17.4-3.4,17.9,15.3,35.4,35.1,32.9,4.3-.5,10.5-2.5,13.7-4.3,3.8-2.1,18.9-18,41.7-43.9,19.7-22.3,36.9-41.4,38.3-42.4,4-2.9,13.3-2.3,16.7,1s5.1,9.1,3.9,14.1c-.9,3.6-65.4,78.1-75.9,87.7-13.3,12.1-36.2,19.3-52.4,16.5-19.8-3.4-36.8-15.6-44.6-31.8-3.4-7.2-4.3-11.3-4.9-22.5-.6-13.4-.5-14,4.7-24.5,5.3-10.8,13.3-19.2,22.2-23.2,2.1-1,3.9-2.3,3.9-3,0-1.7-65.7-83.8-71.7-89.5-4-3.8-6.2-4.8-11.1-4.8-11.3,0-19.1,8-19.1,19.7s3.6,9.7,29.9,42.4c27.2,33.9,29.9,37.7,29.9,42.9s-4.9,12.5-11.9,13.9c-3.9.8-5.5,0-10.3-4.3-3.1-2.9-7.7-7.9-10.1-11.2s-4.9-6-5.5-6.1c-.6,0-1.1,26.2-1.1,58.2s-.6,59.8-1.5,62.1-3.6,4.7-6.6,6h0ZM458.6,463.4c-14.3,5.5-18.4,5.6-24.1.8-6.5-5.4-6.8-9.2-1.9-24.7,9.1-28.8,14.5-53,17.8-80,.9-7.2,2.3-14.4,3.1-15.8,2.6-4.8,7.6-6.4,20.6-6.5,14.4,0,20.6-2.5,25.2-10,4.8-7.8,4-9.5-4.9-10.4-25.3-2.7-30.1-2.8-34.8-.3-5.8,3-14.6,14.6-21.5,28.5-5.7,11.4-9.7,15.2-15.8,15.2s-11.4-4.9-13.1-9.3c-.7-1.9.5-9.3,3-19.4,8.7-34.4,12-56.2,12.2-79.8.1-12.2-.4-25.9-1.1-30.6-1.3-8.2-1.2-8.5,3.2-12.9,5.7-5.7,14.8-6.3,19.4-1.3,4.2,4.5,7.5,21,7.5,37s-2,36.3-3.8,43.8c-.7,3.1-.4,3.4,2.6,2.4,7.7-2.4,30.3-2.6,40.5-.3,6.5,1.5,13.2,2,18.5,1.4,17.5-1.8,21.3,2.6,20.1,23.5-.6,10.6-1.6,14.8-5.3,22.3-8.2,16.6-20.8,25.9-39.7,29.2l-8.7,1.5-1.9,13.1c-1,7.2-3.7,21.1-5.9,30.9-2.2,9.8-3.5,17.7-2.8,17.7,6.3,0,38-20.9,51.3-33.7,13.8-13.3,19.3-24.7,19.3-39.5s.5-10.9,3.4-13.6c8-7.6,20.3-4.8,23.1,5.3,3.3,12,.9,27.6-6.7,42.7-5.5,10.8-23.2,29.6-38.2,40.4-14.1,10.2-43.1,25.7-60.5,32.4h-.1ZM733.8,692.9c-7.2,1.4-179.7.7-188.8-.8-8.3-1.4-21.3-8.2-26.8-14-1.6-1.7-3.4-5.9-3.8-9.2-.7-5.2-.2-6.5,3.7-10.5,5.4-5.4,12.7-6,18.5-1.5,8.8,6.9,12,7.3,53.1,7.3s39.4-.4,39.9-.9-.7-2.9-2.8-5.4c-9.1-10.8-15.7-28.6-23.4-62.8-10.3-45.8-18.2-60.6-37.5-70.1-9.3-4.6-10.6-4.8-26-4.8s-17.2.4-35.8,6.8c-19.1,6.7-19.6,6.7-24.4,4.4-5.7-2.9-9.1-9.1-7.8-14.6.8-3.6,10.1-14.8,31.3-37.6,7.1-7.6,8.5-8.5,13.9-8.5,9.8,0,14.1,5.7,13.3,17.7-.2,3.6,0,3.7,8.8,3.2,18.8-1,42.9,7.4,56.2,19.9,16.9,15.8,24.7,32.8,36.2,78.4,9,35.5,14,47.7,23,55.8,12.6,11.4,28.6,16,63.2,18.2,20.5,1.3,21.5,1.5,24.7,5.3,7.2,8.4,2.5,21.3-8.6,23.6h-.1ZM330.1,303.2c-2.6,1.3-5.4,2.3-6.1,2.3-2.5,0-10.7-5.8-12.2-8.7-.9-1.6-1.6-11.4-1.6-21.9v-18.9l-14-9.2c-9.4-6.2-14.3-9.3-16.5-13.7-2.4-4.6-1.9-10.7-.9-23.4,0-.5,0-1,.1-1.4,2.9-37,10.4-72.1,24.1-113.5,8.9-27,11.4-30.3,21.5-29.7,5.9.4,7.4,1.1,10.1,5.1,3.8,5.6,18.1,47.8,24.2,71.4,9.9,38.1,15.7,84.1,11.7,92.4-1.3,2.7-7.4,7.6-17.2,13.8l-15.1,9.6v18.1c0,20.4-1.2,24.5-8.2,27.8h.1ZM314.9,226.9l9.1,6,9-5.7c8.4-5.3,9-6.1,9.5-11.9,1.2-15.7-14.3-91.5-18.7-91.5s-12.4,44.2-15.7,71.4c-.2,1.3-.3,2.5-.5,3.6-1.7,13.9-2.3,18.8-.3,22,1.3,2.1,3.7,3.5,7.6,6h0ZM331.6,340.1c-8.6,5.7-21.4-.5-21.4-10.4s5.4-12.4,13.9-12.4,9.7,1.8,12.8,7.6c2.1,4-.7,12.2-5.3,15.2h0Z"/>
</svg>
